<?xml version="1.0" encoding="UTF-8"?>
<svg version="1.1" xmlns="http://www.w3.org/2000/svg" width="50" height="50">
<path d="M0 0 C3.97945376 2.88931387 6.90276525 6.71429548 8.75390625 11.2734375 C9.65857912 18.47272898 9.62284344 24.74633844 5.1796875 30.69140625 C1.27255997 35.02671214 -2.63218122 37.86077621 -8.50390625 38.53125 C-14.61783668 38.81170552 -19.24885582 37.90172161 -24.24609375 34.2734375 C-28.10969175 30.59662922 -30.94630263 26.65914365 -31.6171875 21.3203125 C-31.76612174 13.92616538 -31.29601485 8.87677461 -26.24609375 3.2734375 C-18.78730361 -3.81241313 -9.01893001 -5.1380571 0 0 Z " fill="#F1EDF0" transform="translate(36.24609375,5.7265625)"/>
<path d="M0 0 C3.8605122 2.8029554 7.23435702 6.7147898 8.75390625 11.2734375 C8.83164085 13.60547562 8.84358353 15.94182809 8.75390625 18.2734375 C7.10286595 17.87790697 5.45805475 17.45629853 3.81640625 17.0234375 C2.89988281 16.79140625 1.98335937 16.559375 1.0390625 16.3203125 C-1.24609375 15.2734375 -1.24609375 15.2734375 -2.0625 13.1640625 C-2.12308594 12.54015625 -2.18367188 11.91625 -2.24609375 11.2734375 C-2.32859375 11.9334375 -2.41109375 12.5934375 -2.49609375 13.2734375 C-3.49369166 17.26382913 -5.31776058 20.65893393 -7.24609375 24.2734375 C-8.23609375 23.9434375 -9.22609375 23.6134375 -10.24609375 23.2734375 C-10.61819795 21.95040033 -10.95239548 20.61605815 -11.24609375 19.2734375 C-11.90609375 18.9434375 -12.56609375 18.6134375 -13.24609375 18.2734375 C-13.24609375 17.9434375 -13.24609375 17.6134375 -13.24609375 17.2734375 C-13.90609375 17.6034375 -14.56609375 17.9334375 -15.24609375 18.2734375 C-15.64828125 16.571875 -15.64828125 16.571875 -16.05859375 14.8359375 C-16.45046875 13.6603125 -16.84234375 12.4846875 -17.24609375 11.2734375 C-18.23609375 10.9434375 -19.22609375 10.6134375 -20.24609375 10.2734375 C-20.24609375 13.9034375 -20.24609375 17.5334375 -20.24609375 21.2734375 C-21.23609375 20.9434375 -22.22609375 20.6134375 -23.24609375 20.2734375 C-22.58609375 18.6234375 -21.92609375 16.9734375 -21.24609375 15.2734375 C-22.00921875 15.6034375 -22.77234375 15.9334375 -23.55859375 16.2734375 C-26.24609375 17.2734375 -26.24609375 17.2734375 -29.24609375 17.2734375 C-29.57609375 17.9334375 -29.90609375 18.5934375 -30.24609375 19.2734375 C-31.71259741 16.34043018 -31.6104967 14.55306406 -31.24609375 11.2734375 C-28.47787123 5.30050924 -24.78065992 1.2931896 -19.05859375 -1.9765625 C-12.32987348 -3.77088791 -6.09555982 -3.47262196 0 0 Z " fill="#F5F5F5" transform="translate(36.24609375,5.7265625)"/>
<path d="M0 0 C1.32 0.33 2.64 0.66 4 1 C5.25 4.0625 5.25 4.0625 6 7 C6.66 6.34 7.32 5.68 8 5 C8.99 5.33 9.98 5.66 11 6 C10.01 6.66 9.02 7.32 8 8 C9.32 10.31 10.64 12.62 12 15 C7.7072302 15 4.27540347 14.85508069 0 14 C0 9.38 0 4.76 0 0 Z " fill="#CCD5FA" transform="translate(16,16)"/>
<path d="M0 0 C0.33 0 0.66 0 1 0 C1.33 1.65 1.66 3.3 2 5 C2.66 4.34 3.32 3.68 4 3 C4.99 3.33 5.98 3.66 7 4 C6.01 4.66 5.02 5.32 4 6 C5.32 8.31 6.64 10.62 8 13 C1 13 1 13 -2 12 C-1.34 12 -0.68 12 0 12 C0 8.04 0 4.08 0 0 Z " fill="#9DB1FB" transform="translate(20,18)"/>
<path d="M0 0 C-0.66 1.65 -1.32 3.3 -2 5 C-1.34 5 -0.68 5 0 5 C-0.33 5.66 -0.66 6.32 -1 7 C-3.31 6.01 -5.62 5.02 -8 4 C-8 3.34 -8 2.68 -8 2 C-5.09399739 0.74335022 -3.20395416 0 0 0 Z " fill="#FAE1BA" transform="translate(15,21)"/>
<path d="M0 0 C1.875 0.25 1.875 0.25 4 1 C5.25 3.0625 5.25 3.0625 6 5 C4.35 5 2.7 5 1 5 C0.67 3.35 0.34 1.7 0 0 Z " fill="#BCC9FA" transform="translate(22,26)"/>
</svg>
